{"title":"The Diary of a Teenage Girl (2015) BRRIP 1080P NO CINAVIA","uid":13533584,"size":2109190316,"categoryP":"video","categoryS":"hd___movies","magnet":"?xt=urn:btih:e5f47932de55530fc612fedfd77c723dd4c071fe&amp;dn=The+Diary+of+a+Teenage+Girl+%282015%29+BRRIP+1080P+NO+CINAVIA&amp;tr=udp%3A%2F%2Ftracker.leechers-paradise.org%3A6969&amp;tr=udp%3A%2F%2Fzer0day.ch%3A1337&amp;tr=udp%3A%2F%2Fopen.demonii.com%3A1337&amp;tr=udp%3A%2F%2Ftracker.coppersurfer.tk%3A6969&amp;tr=udp%3A%2F%2Fexodus.desync.com%3A6969","seeders":0,"leechers":1,"uploader":"jmanwf","files":3,"time":1455425897,"description":"Storyline\r\n\r\nA teen artist living in 1970s San Francisco enters into an affair with her mother's boyfriend.\r\n\r\n\r\nVideo\r\nID : 1\r\nFormat : AVC\r\nFormat/Info : Advanced Video Codec\r\nFormat profile :   \r\nFormat settings, CABAC : Yes\r\nFormat settings, ReFrames : 4 frames\r\nCodec ID : avc1\r\nCodec ID/Info : Advanced Video Coding\r\nDuration : 1h 42mn\r\nBit rate : 2 500 Kbps\r\nWidth : 1 920 pixels\r\nHeight : 800 pixels\r\nDisplay aspect ratio : 2.40:1\r\nFrame rate mode : Constant\r\nFrame rate : 23.976 fps\r\nColor space : YUV\r\nChroma subsampling : 4:2:0\r\nBit depth : 8 bits\r\nScan type : Progressive\r\nBits/(Pixel*Frame) : 0.068\r\nStream size : 1.78 GiB (92%)\r\nWriting library : x264 core 148 r2597M e86f3a1\r\n\r\nEncoded date : UTC 2015-12-30 04:35:14\r\nTagged date : UTC 2015-12-30 04:35:14\r\n\r\nAudio\r\nID : 2\r\nFormat : AAC\r\nFormat/Info : Advanced Audio Codec\r\nFormat profile : LC\r\nCodec ID : 40\r\nDuration : 1h 42mn\r\nBit rate mode : Variable\r\nBit rate : 198 Kbps\r\nMaximum bit rate : 896 Kbps\r\nChannel(s) : 2 channels\r\nChannel(s)_Original : 6 channels\r\nChannel positions : Front: L C R, Side: L R, LFE\r\nSampling rate : 48.0 KHz\r\nCompression mode : Lossy\r\nStream size : 145 MiB (7%)\r\nLanguage : English\r\nEncoded date : UTC 2015-12-30 04:35:14\r\nTagged date : UTC 2015-12-30 04:35:14\r\n\r\n\r\n \nhttp://s14.postimg.org/hb8rzkpmp/image.jpg\r\n\r\n\r\n\r\n \nhttp://s14.postimg.org/vgel1dyo1/image.jpg","torrent":{"xt":"urn:btih:e5f47932de55530fc612fedfd77c723dd4c071fe","amp;dn":"The+Diary+of+a+Teenage+Girl+%282015%29+BRRIP+1080P+NO+CINAVIA","amp;tr":["udp%3A%2F%2Ftracker.leechers-paradise.org%3A6969","udp%3A%2F%2Fzer0day.ch%3A1337","udp%3A%2F%2Fopen.demonii.com%3A1337","udp%3A%2F%2Ftracker.coppersurfer.tk%3A6969","udp%3A%2F%2Fexodus.desync.com%3A6969"],"infoHash":"e5f47932de55530fc612fedfd77c723dd4c071fe","infoHashBuffer":{"type":"Buffer","data":[229,244,121,50,222,85,83,15,198,18,254,223,215,124,114,61,212,192,113,254]},"announce":[],"urlList":[]}}